<svg xmlns="http://www.w3.org/2000/svg" viewBox="0 0 118.09 14.49"><defs><style>.cls-1{fill:#068488;}.cls-2{fill:#a62952;}</style></defs><g id="Warstwa_2" data-name="Warstwa 2"><g id="Layer_1" data-name="Layer 1"><path class="cls-1" d="M1.3,0,7.55,7.48,13.79,0H15.1V14.36H12.68V4.56L7.55,10.8,2.41,4.56v9.8H0V0Z"/><path class="cls-1" d="M27.76,0V2.22H20.32V5.37h5.77v2.2H20.32v4.56h7.44v2.22H17.91V0Z"/><path class="cls-1" d="M37.27.33A7.07,7.07,0,0,1,42.4,7.19a7.08,7.08,0,0,1-5.13,6.86,9.21,9.21,0,0,1-2.71.31H30.07V0h4.49A8.81,8.81,0,0,1,37.27.33ZM36.9,11.79A4.79,4.79,0,0,0,40,7.19,4.83,4.83,0,0,0,36.9,2.58a5.89,5.89,0,0,0-2.34-.35H32.48v9.9h2.08A5.72,5.72,0,0,0,36.9,11.79Z"/><path class="cls-1" d="M44.51,0h2.42V14.36H44.51Z"/><path d="M52.6.28l5.14,6.84L52.6,14H50.15l5.08-6.84L50.15.28Zm6.21,0L64,7.12,58.81,14H56.36l5.08-6.84L56.36.28Z"/><path class="cls-2" d="M77.7,5.79A4.7,4.7,0,0,0,73,2.33a4.77,4.77,0,0,0-4.87,5,4.8,4.8,0,0,0,4.87,5,4.73,4.73,0,0,0,4.7-3.52L80,9.45A7.35,7.35,0,0,1,65.68,7.31,7.15,7.15,0,0,1,73,.12a7,7,0,0,1,7,4.94Z"/><path class="cls-2" d="M90.51,11.8H83.66l-1,2.66H80.09L85.9.1h2.39l5.8,14.36H91.56Zm-6-2.19h5.16L87.09,3Z"/><path class="cls-2" d="M96.35,10.19a6.46,6.46,0,0,0,4.48,2c1.64,0,3-.83,3-2.1,0-1.57-2-1.86-4.21-2.3-2.37-.49-4.51-1.33-4.51-3.7s1.8-4,4.94-4a8,8,0,0,1,5.18,2L103.8,3.76A5.77,5.77,0,0,0,100,2.3c-1.42,0-2.56.63-2.56,1.63s1.33,1.44,3.49,1.83,5.26,1.15,5.26,4.37c0,2.47-2.27,4.33-5.33,4.33a8.71,8.71,0,0,1-6-2.57Z"/><path class="cls-2" d="M118.09.11V2.33h-7.44V5.48h5.77v2.2h-5.77v4.56h7.44v2.22h-9.85V.11Z"/></g></g></svg>