<svg xmlns="http://www.w3.org/2000/svg" viewBox="0 0 1100.65 132.71"><defs><style>.cls-1{fill:#0b8488;}.cls-2{fill:#010101;}</style></defs><g id="Warstwa_2" data-name="Warstwa 2"><g id="logo"><path class="cls-1" d="M12.07,0,70.34,68.59,128.52,0h12.16V131.75H118.19v-90L70.34,99,22.4,41.73v90H0V0Z"/><path class="cls-1" d="M258.69,0V20.38H189.41v29h53.71V69.55H189.41v41.82h69.28v20.38H166.83V0Z"/><path class="cls-1" d="M347.32,3c27.82,8,47.85,32.55,47.85,62.91s-19.95,54.76-47.85,62.9c-6.57,1.84-13.3,2.89-25.2,2.89H280.3V0h41.82C334,0,340.75,1.05,347.32,3ZM344,108.13c17.41-6.47,28.7-22.66,28.7-42.17S361.4,30.27,344,23.71c-5.16-2-10.85-3.24-21.87-3.24H302.7v90.9h19.42C333.06,111.28,338.83,110.14,344,108.13Z"/><path class="cls-1" d="M414.94,0h22.49V131.75H414.94Z"/><path class="cls-2" d="M490.27,2.54l47.85,62.81-47.85,62.82H467.43l47.33-62.82L467.43,2.54Zm57.91,0L596,65.35l-47.86,62.82H525.35l47.33-62.82L525.35,2.54Z"/><path class="cls-1" d="M724.2,53c-6.12-19.6-22.22-31.76-43.65-31.76-26.51,0-45.41,19.68-45.41,45.58,0,25.11,18.55,45.49,45.41,45.49,21.34,0,37.62-12.33,43.83-32.37l21.34,6.56c-8.05,27.56-34.12,46.19-65.17,46.19-37.88,0-68.42-28.25-68.42-65.87,0-37.1,29.57-66,68.42-66,30.18,0,56.08,16.8,64.91,45.32Z"/><path class="cls-1" d="M843.62,108.22H779.76l-9.63,24.41H746.51L800.66.87h22.23L877,132.63H853.42Zm-56-20.12h48.12l-24-60.8Z"/><path class="cls-1" d="M898,93.43c11.63,11.46,26.5,18.64,41.73,18.64s27.82-7.61,27.82-19.34c0-14.43-19.16-17.06-39.2-21.17-22.13-4.46-42-12.25-42-34,0-20.47,16.8-36.83,46-36.83a75.36,75.36,0,0,1,48.29,18L967.5,34.21c-9.19-8.4-22.49-13.39-35.43-13.39-13.21,0-23.8,5.78-23.8,15,0,10.5,12.42,13.21,32.55,16.8,21.17,3.59,49.07,10.58,49.07,40.15,0,22.66-21.17,39.81-49.69,39.81-18.19,0-38.58-7-56.08-23.62Z"/><path class="cls-1" d="M1100.65,1V21.35h-69.29V50.3h53.72V70.51h-53.72v41.82h69.29v20.38h-91.86V1Z"/></g></g></svg>