<svg id="Warstwa_3" data-name="Warstwa 3" xmlns="http://www.w3.org/2000/svg" viewBox="0 0 3154.99 1640.66"><defs><style>.cls-1,.cls-10,.cls-11,.cls-12,.cls-13,.cls-14,.cls-15,.cls-16,.cls-17,.cls-18,.cls-19,.cls-2,.cls-20,.cls-21,.cls-22,.cls-3,.cls-4,.cls-5,.cls-6,.cls-7,.cls-8,.cls-9{fill:none;stroke-miterlimit:10;stroke-width:4px;}.cls-1{stroke:#46d1c0;}.cls-2{stroke:#4bc9bb;}.cls-3{stroke:#4fc1b6;}.cls-4{stroke:#54b9b1;}.cls-5{stroke:#58b0ab;}.cls-6{stroke:#5da8a6;}.cls-7{stroke:#61a0a1;}.cls-8{stroke:#66989c;}.cls-9{stroke:#6a9097;}.cls-10{stroke:#6f8892;}.cls-11{stroke:#73808d;}.cls-12{stroke:#787787;}.cls-13{stroke:#7c6f82;}.cls-14{stroke:#81677d;}.cls-15{stroke:#855f78;}.cls-16{stroke:#8a5773;}.cls-17{stroke:#8e4f6e;}.cls-18{stroke:#934769;}.cls-19{stroke:#973e63;}.cls-20{stroke:#9c365e;}.cls-21{stroke:#a02e59;}.cls-22{stroke:#a52654;}</style></defs><path class="cls-1" d="M64.78,1586.47c-4.31-27.4-81.28-561.6,233.65-776.1,145.46-99.07,321.15-93.57,412.85-90.7,381.44,11.94,485.23,241.5,674.06,177.38,235.64-80,176.32-472.2,434.36-558.44,171.52-57.32,280,88.47,452.56,26.29,168-60.52,247.67-264.37,288.24-418.27" transform="translate(194.06 53.88)"/><path class="cls-2" d="M52.54,1567.64c1-34.62-66.95-555.23,244.18-757,148.5-96.32,323.46-78,418.46-72.58,29.29,1.66,57.13,3.71,83.69,6.42,237.45,24.18,346.17,115.27,469.87,140.38,39.17,7.95,78.46,8.65,122.13-4.49,156.29-47,197.77-204.37,267.73-345.6,39.29-78.94,83-153.34,167.81-189.31,71-30.14,131.22-20,193.76-5.46,73.5,16.86,149.69,42.75,240.6,15.69,3.71-1.09,7.43-2.27,11.19-3.52,174.94-58.17,262.81-244,307.55-385.72" transform="translate(194.06 53.88)"/><path class="cls-3" d="M40.29,1548.8C46.57,1507-12,1000.22,295,810.82c151.64-93.54,325.75-62.4,424.07-54.46,29.67,2.4,58,4.39,85.29,6.61,236.74,19.25,337.67,85.13,467.42,105.36,40,6.23,80.13,7,124.61-4.73,161.23-42.59,214.5-177,284.14-314.3,39.48-77.09,75.13-155.9,152.58-197.08,64.72-34.41,120.72-29.36,182.55-19.5,72.71,11.58,152.41,35.56,244.53,10,3.8-1.06,7.61-2.18,11.46-3.36,181.94-55.77,278-223.72,326.86-353.17" transform="translate(194.06 53.88)"/><path class="cls-4" d="M28.05,1530c11.58-49-37.34-541.66,265.26-718.91,154.9-90.74,328-46.88,429.66-36.34,30.06,3.12,59,5.07,86.9,6.78,236,14.49,329.07,55.11,465,70.34,40.74,4.57,81.83,5.42,127.1-5,166.22-38.1,230.86-149.89,300.55-283,39.45-75.34,67.11-158.35,137.35-204.83,58.33-38.61,110.25-38.83,171.34-33.56,72,6.22,155.19,28.54,248.46,4.31,3.89-1,7.79-2.08,11.73-3.19,189-53.31,293.08-203.39,346.17-320.62" transform="translate(194.06 53.88)"/><path class="cls-5" d="M15.81,1511.13C32.68,1454.85-6.28,976.68,291.6,811.27c158.28-87.89,330.32-31.4,435.27-18.21,30.44,3.82,59.87,5.76,88.51,7,235.19,9.87,320.39,25.22,462.49,35.32,41.49,2.95,83.54,3.82,129.58-5.2,171.25-33.55,247.5-122.62,317-251.71,39.57-73.53,59-160.66,122.11-212.6,51.87-42.68,99.79-48.3,160.13-47.6,71.23.83,158,21.53,252.39-1.39,4-1,8-2,12-3,196-50.8,308.22-183.07,365.48-288.07" transform="translate(194.06 53.88)"/><path class="cls-6" d="M3.56,1492.29C25.73,1428.79-3,965.35,289.89,811.5c161.78-85,332.6-16,440.88-.1a734.49,734.49,0,0,0,90.11,7.15c234.37,5.4,311.67-4.54,460,.3,42.23,1.37,85.25,2.25,132.07-5.44,176.31-28.94,264.14-95.35,333.39-220.41,39.7-71.71,50.8-162.79,106.88-220.37,45.38-46.59,89.34-57.78,148.92-61.64,70.5-4.56,160.76,14.53,256.33-7.08,4.06-.92,8.15-1.89,12.26-2.87,203.13-48.23,323.35-162.73,384.79-255.51" transform="translate(194.06 53.88)"/><path class="cls-7" d="M-8.68,1473.45C18.78,1402.74.54,954.32,288.18,811.72c165.39-82,334.88-.56,446.48,18,31.21,5.2,61.71,6,91.72,7.32,233.29,10.62,303.16-43.22,457.58-34.72a711,711,0,0,0,134.55-5.66c181.39-24.27,280.8-68.08,349.8-189.12,39.84-69.89,42.63-164.71,91.65-228.13,38.91-50.34,78.9-67.29,137.71-75.69,69.78-10,163.56,7.55,260.26-12.78,4.16-.87,8.33-1.79,12.53-2.7,210.24-45.62,338.49-142.41,404.09-223" transform="translate(194.06 53.88)"/><path class="cls-8" d="M-20.93,1454.61C11.83,1376.68,4.32,943.6,286.48,812c169.1-78.9,337.15,14.8,452.08,36.15,31.59,5.86,62.58,6.57,93.33,7.5,232.58,7,294.16-63.68,455.11-69.74,43.68-1.64,88.69-.84,137-5.9,186.48-19.54,297.46-40.79,366.21-157.82,40-68.07,34.53-166.44,76.42-235.9,32.52-53.91,68.46-76.8,126.5-89.73,69.07-15.4,166.36.59,264.19-18.48,4.25-.82,8.52-1.68,12.8-2.53,217.37-42.95,353.62-122.08,423.4-190.42" transform="translate(194.06 53.88)"/><path class="cls-9" d="M-33.17,1435.78C4.89,1350.63,8.31,933.2,284.77,812.17c172.92-75.7,339.44,30.14,457.68,54.27a407.66,407.66,0,0,0,94.94,7.69c231.8-7.24,285.4-93.07,452.65-104.76,44.41-3.11,90.41-2.36,139.52-6.14,191.6-14.75,314.15-13.5,382.63-126.52,40.13-66.25,26.58-168,61.19-243.66,26.25-57.37,58-86.33,115.29-103.79,68.36-20.84,169.16-6.35,268.12-24.16,4.34-.78,8.7-1.59,13.08-2.37,224.49-40.24,368.75-101.76,442.7-157.87" transform="translate(194.06 53.88)"/><path class="cls-10" d="M-45.41,1416.94C-2.06,1324.57,12.5,923.11,283.06,812.4,459.9,740,624.8,857.83,746.35,884.79a361.29,361.29,0,0,0,96.55,7.87c230.92-11.23,276.64-122.35,450.18-139.79,45.14-4.53,92.14-3.86,142-6.37,196.71-9.9,330.85,13.79,399-95.22,40.29-64.42,18.82-169.48,46-251.43C1900.21,339.1,1927.68,304,1984.17,282c67.65-26.3,172-13.29,272-29.86,4.44-.73,8.88-1.48,13.35-2.2,231.64-37.48,383.88-81.43,462-125.32" transform="translate(194.06 53.88)"/><path class="cls-11" d="M-57.66,1398.1c48.65-99.58,74.51-484.76,339-585.48,180.86-68.86,344,60.7,468.9,90.52a326.49,326.49,0,0,0,98.15,8c230.06-15.1,267.91-151.52,447.73-174.8,45.87-5.94,93.86-5.35,144.49-6.61,201.83-5,347.56,41.09,415.45-63.93,40.46-62.59,11.27-170.91,30.74-259.18,14.13-64.11,37.13-105.42,92.86-131.88,66.93-31.78,174.78-20.21,276-35.56,4.53-.68,9.07-1.37,13.62-2,238.79-34.67,399-61.1,481.32-92.76" transform="translate(194.06 53.88)"/><path class="cls-12" d="M-69.9,1379.27C-16,1272.46,21.36,903.87,279.65,812.85c185-65.19,346.35,75.93,474.49,108.63a299.54,299.54,0,0,0,99.76,8.23c229.21-18.88,259.21-180.6,445.27-209.82,46.61-7.32,95.61-8.19,147-6.84,206.87,5.41,364.28,68.39,431.86-32.64,40.64-60.75,3.9-172.38,15.51-266.95,8.28-67.48,26.68-115,81.65-145.92,66.2-37.26,177.59-27.12,279.92-41.25,4.62-.64,9.24-1.28,13.88-1.88,245.94-31.82,414.16-40.77,500.62-60.21" transform="translate(194.06 53.88)"/><path class="cls-13" d="M-82.15,1360.43C-22.9,1246.4,26,894.72,277.94,813.07,467.09,751.78,626.61,904.22,758,939.83a278.23,278.23,0,0,0,101.37,8.41c228.36-22.58,250.52-209.59,442.8-244.85,47.36-8.68,97.32-8.29,149.47-7.07,212,5,381,95.71,448.27-1.34,40.82-58.91-3.32-173.91.28-274.72,2.53-70.91,16.22-124.55,70.44-160,65.46-42.76,180.4-34,283.85-47,4.71-.59,9.42-1.17,14.15-1.71C2521.77,182.7,2698,191.19,2788.6,184" transform="translate(194.06 53.88)"/><path class="cls-14" d="M-94.39,1341.59C-29.85,1220.35,30.69,885.87,276.23,813.3c193.42-57.17,351,106.33,485.71,144.88a261,261,0,0,0,103,8.59c227.54-26.19,241.89-238.5,440.34-279.87,48.12-10,99-9.75,152-7.31,217.16,10,397.79,123,464.69,30,41-57.07-10.42-175.53-15-282.48-3.16-74.42,5.75-134.13,59.23-174,64.71-48.26,183.21-40.9,287.78-52.64q7.2-.81,14.42-1.54c260.26-26,444.43-.12,539.24,4.89" transform="translate(194.06 53.88)"/><path class="cls-15" d="M-106.63,1322.76C-36.8,1194.29,35.46,877.32,274.52,813.52c197.74-52.76,353.35,121.49,491.31,163a246.41,246.41,0,0,0,104.58,8.77C1097.14,955.58,1103.69,718,1308.3,670.41c48.88-11.37,100.76-11.2,154.43-7.55C1685,678,1877.29,813.24,1943.83,724.12c41.22-55.22-17.45-177.25-30.18-290.25-8.79-78-4.73-143.71,48-188.06,63.95-53.77,186-47.77,291.71-58.33,4.9-.49,9.79-1,14.69-1.38,267.41-23,459.56,20.2,558.55,37.44" transform="translate(194.06 53.88)"/><path class="cls-16" d="M-118.88,1303.92c75.13-135.68,159.15-434.86,391.69-490.17,202.1-48.07,355.7,136.63,496.92,181.12,34.72,10.94,69.79,14.29,106.19,9,225.94-33.18,224.71-296.09,435.42-349.9,49.66-12.69,102.48-12.64,156.92-7.79,227.31,20.27,431.35,177.74,497.51,92.56,41.44-53.36-24.42-179.05-45.41-298-14.4-81.62-15.22-153.29,36.81-202.11,63.18-59.28,188.84-54.64,295.64-64q7.49-.66,15-1.21c274.56-20.05,474.7,40.53,577.86,70" transform="translate(194.06 53.88)"/><path class="cls-17" d="M-131.12,1285.08c80.42-142.9,176.2-424,402.23-471.11,206.49-43,358.06,151.75,502.52,199.25,35.12,11.55,70.7,15.15,107.79,9.13,225.18-36.58,216.19-324.8,433-384.93,50.44-14,104.2-14.06,159.41-8,232.37,25.45,448.16,205.1,513.92,123.85,41.67-51.48-31.37-180.94-60.64-305.78-20-85.32-25.71-162.87,25.6-216.15,62.39-64.79,191.65-61.5,299.57-69.73,5.09-.38,10.16-.74,15.23-1,281.71-17,489.83,60.86,597.17,102.54" transform="translate(194.06 53.88)"/><path class="cls-18" d="M-143.37,1266.25c85.73-150.13,193.22-412.87,412.77-452C480.3,776.57,629.83,981,777.52,1031.56c35.54,12.16,71.63,16,109.4,9.31,224.45-39.91,207.71-353.44,430.5-419.94,51.24-15.29,105.91-15.48,161.89-8.25,237.42,30.67,465,232.49,530.34,155.15,41.9-49.6-38.32-182.89-75.87-313.54-25.6-89.07-36.21-172.46,14.39-230.2,61.6-70.3,194.46-68.34,303.5-75.42q7.77-.51,15.5-.89c288.85-13.95,505,81.19,616.47,135.09" transform="translate(194.06 53.88)"/><path class="cls-19" d="M-155.61,1247.41c91-157.34,210.16-401.48,423.3-433C483,782.6,630.51,996.34,781.42,1049.91c35.94,12.76,72.55,16.92,111,9.49,223.74-43.19,199.25-382.05,428-455,52-16.59,107.6-16.9,164.37-8.49,242.44,35.92,481.84,259.9,546.75,186.44,42.16-47.7-45.26-184.9-91.1-321.3-31.2-92.86-46.72-182,3.18-244.24,60.8-75.81,197.26-75.18,307.44-81.12,5.26-.28,10.52-.53,15.76-.72,296-10.85,520.1,101.52,635.78,167.64" transform="translate(194.06 53.88)"/><path class="cls-20" d="M-167.85,1228.57C-71.54,1064,59.15,838.73,266,814.65c219.65-25.57,365.22,197,519.34,253.61,36.35,13.35,73.47,17.81,112.61,9.67,223.07-46.42,190.85-410.61,425.58-490,52.85-17.87,109.31-18.3,166.86-8.72,247.45,41.21,498.7,287.33,563.16,217.74,42.42-45.78-52.22-187-106.33-329.07-36.82-96.68-57.33-191.67-8-258.29,59.89-81.39,200.08-81.8,311.37-86.81q8-.33,16-.55c303.12-7.73,535.24,121.84,655.09,200.19" transform="translate(194.06 53.88)"/><path class="cls-21" d="M-180.1,1209.73C-78.49,1038,63.6,831.75,264.28,814.88,488.21,796,632,1026.66,789.21,1086.6c36.79,13.9,74.42,18.73,114.23,9.86,222.43-49.61,182.47-439.13,423.11-525,53.67-19.15,111-19.61,169.35-9,252.35,47,515.57,314.78,579.57,249,42.7-43.85-59.19-189.07-121.56-336.83-42.44-100.55-67.8-201.22-19.24-272.34,59.13-86.86,202.88-88.72,315.3-92.5q8.18-.27,16.3-.39c310.26-4.23,550.38,142.17,674.4,232.74" transform="translate(194.06 53.88)"/><path class="cls-22" d="M-192.34,1190.9C-85.43,1011.9,67.87,825,262.57,815.1,543.51,800.83,693.76,1166.15,908.94,1115c221.83-52.75,174.14-467.6,420.65-560,291.69-109.36,689.71,347.3,767.82,271.14,72.25-70.43-285.32-444.27-167.24-631,58.37-92.32,205.68-95.64,319.23-98.2,325.3-7.34,579.86,160.49,710.28,265.07" transform="translate(194.06 53.88)"/></svg>