<svg xmlns="http://www.w3.org/2000/svg" viewBox="0 0 3278.02 1843.89"><defs><style>.cls-1{fill:#080819;stroke:#1d1d1b;}.cls-1,.cls-10,.cls-11,.cls-12,.cls-13,.cls-14,.cls-15,.cls-16,.cls-17,.cls-18,.cls-19,.cls-2,.cls-20,.cls-21,.cls-22,.cls-23,.cls-3,.cls-4,.cls-5,.cls-6,.cls-7,.cls-8,.cls-9{stroke-miterlimit:10;}.cls-10,.cls-11,.cls-12,.cls-13,.cls-14,.cls-15,.cls-16,.cls-17,.cls-18,.cls-19,.cls-2,.cls-20,.cls-21,.cls-22,.cls-23,.cls-3,.cls-4,.cls-5,.cls-6,.cls-7,.cls-8,.cls-9{fill:none;stroke-width:4px;}.cls-2{stroke:#46d1c0;}.cls-3{stroke:#4bc9bb;}.cls-4{stroke:#4fc1b6;}.cls-5{stroke:#54b9b1;}.cls-6{stroke:#58b0ab;}.cls-7{stroke:#5da8a6;}.cls-8{stroke:#61a0a1;}.cls-9{stroke:#66989c;}.cls-10{stroke:#6a9097;}.cls-11{stroke:#6f8892;}.cls-12{stroke:#73808d;}.cls-13{stroke:#787787;}.cls-14{stroke:#7c6f82;}.cls-15{stroke:#81677d;}.cls-16{stroke:#855f78;}.cls-17{stroke:#8a5773;}.cls-18{stroke:#8e4f6e;}.cls-19{stroke:#934769;}.cls-20{stroke:#973e63;}.cls-21{stroke:#9c365e;}.cls-22{stroke:#a02e59;}.cls-23{stroke:#a52654;}</style></defs><g id="Warstwa_6" data-name="Warstwa 6"><rect class="cls-1" x="-31.31" y="-43.63" width="3351.06" height="1911.92"/></g><g id="Warstwa_3" data-name="Warstwa 3"><path class="cls-2" d="M360.46,1838.91c-4.32-27.4-81.29-561.61,233.64-776.1C739.57,963.73,915.25,969.23,1007,972.1c381.44,11.95,485.23,241.5,674.06,177.39,235.64-80,176.32-472.2,434.35-558.44,171.52-57.33,280,88.46,452.57,26.29,168-60.52,247.67-264.37,288.24-418.27"/><path class="cls-3" d="M348.21,1820.07c1-34.62-66.95-555.23,244.19-757,148.49-96.32,323.45-78,418.46-72.58,29.28,1.66,57.13,3.72,83.68,6.42,237.45,24.19,346.17,115.28,469.88,140.38,39.16,8,78.46,8.65,122.13-4.49,156.29-47,197.77-204.36,267.73-345.6,39.29-78.94,83-153.33,167.81-189.31,71-30.14,131.21-20,193.76-5.46,73.49,16.87,149.68,42.75,240.6,15.7q5.55-1.64,11.19-3.53c174.93-58.16,262.81-244,307.55-385.71"/><path class="cls-4" d="M336,1801.23c6.28-41.83-52.3-548.58,254.72-738,151.64-93.55,325.75-62.4,424.06-54.46,29.68,2.4,58,4.38,85.29,6.6,236.75,19.26,337.67,85.13,467.42,105.36,40,6.23,80.14,7,124.61-4.73,161.24-42.59,214.51-177,284.15-314.3,39.47-77.08,75.13-155.89,152.58-197.07,64.72-34.42,120.71-29.36,182.55-19.51,72.71,11.59,152.41,35.56,244.53,10,3.79-1,7.61-2.18,11.46-3.36C2749.27,536,2845.28,368.08,2894.2,238.62"/><path class="cls-5" d="M323.73,1782.4c11.57-49.06-37.34-541.66,265.25-718.92,154.91-90.74,328-46.88,429.67-36.34,30.06,3.12,59,5.07,86.9,6.79,236,14.49,329.06,55.11,465,70.34,40.74,4.56,81.84,5.41,127.1-5,166.22-38.09,230.87-149.89,300.56-283C2037.61,741,2065.27,658,2135.51,611.46c58.33-38.61,110.24-38.83,171.34-33.55,72,6.21,155.19,28.53,248.46,4.31,3.88-1,7.79-2.09,11.73-3.2,189-53.31,293.08-203.39,346.16-320.62"/><path class="cls-6" d="M311.48,1763.56c16.87-56.28-22.08-534.45,275.79-699.85,158.29-87.89,330.32-31.4,435.27-18.22,30.44,3.83,59.88,5.76,88.51,7,235.19,9.88,320.4,25.22,462.5,35.32,41.49,3,83.53,3.83,129.58-5.19,171.25-33.55,247.5-122.63,317-251.71,39.57-73.53,59-160.66,122.12-212.61,51.87-42.67,99.79-48.3,160.13-47.59,71.22.83,158,21.52,252.39-1.39,4-1,8-2,12-3,196-50.8,308.21-183.06,365.47-288.07"/><path class="cls-7" d="M299.24,1744.72c22.17-63.49-6.56-526.94,286.33-680.79,161.77-85,332.59-16,440.87-.09a734.6,734.6,0,0,0,90.12,7.14c234.36,5.4,311.67-4.54,460,.3,42.23,1.38,85.25,2.25,132.07-5.43C1885,1036.91,1972.8,970.5,2042,845.44c39.7-71.71,50.81-162.79,106.89-220.37,45.38-46.59,89.34-57.79,148.92-61.65,70.5-4.56,160.76,14.54,256.32-7.08q6.1-1.38,12.27-2.86c203.13-48.24,323.35-162.74,384.78-255.52"/><path class="cls-8" d="M287,1725.89c27.47-70.72,9.23-519.13,296.87-661.73,165.38-82,334.87-.56,446.48,18,31.2,5.2,61.7,6,91.72,7.33,233.28,10.61,303.16-43.22,457.57-34.72a710.15,710.15,0,0,0,134.55-5.67C1895.57,1024.85,1995,981.05,2064,860c39.84-69.89,42.63-164.71,91.66-228.13,38.91-50.33,78.9-67.28,137.71-75.69,69.78-10,163.55,7.56,260.25-12.78,4.16-.87,8.34-1.78,12.54-2.69,210.24-45.62,338.48-142.41,404.09-223"/><path class="cls-9" d="M274.75,1707.05c32.76-77.93,25.24-511,307.4-642.67,169.1-78.9,337.16,14.81,452.08,36.15,31.59,5.87,62.59,6.58,93.33,7.51,232.58,7,294.16-63.69,455.11-69.75,43.69-1.64,88.69-.83,137-5.9,186.49-19.54,297.47-40.79,366.21-157.82,40-68.07,34.54-166.43,76.43-235.89,32.52-53.92,68.46-76.8,126.5-89.74,69.07-15.4,166.35.59,264.19-18.47,4.25-.83,8.51-1.69,12.8-2.54,217.36-42.95,353.62-122.08,423.4-190.41"/><path class="cls-10" d="M262.51,1688.21c38.05-85.15,41.48-502.58,317.93-623.6,172.92-75.7,339.45,30.13,457.69,54.27a407.56,407.56,0,0,0,94.94,7.68c231.79-7.24,285.39-93.07,452.65-104.76,44.41-3.1,90.41-2.35,139.52-6.14,191.6-14.74,314.15-13.5,382.62-126.52,40.14-66.24,26.59-168,61.2-243.66,26.24-57.37,58-86.32,115.29-103.78,68.36-20.84,169.16-6.36,268.12-24.17l13.07-2.37C2790,474.92,2934.3,413.41,3008.25,357.3"/><path class="cls-11" d="M250.26,1669.38c43.35-92.37,57.91-493.83,328.48-604.55,176.84-72.36,341.74,45.43,463.29,72.4a361.65,361.65,0,0,0,96.54,7.86c230.93-11.22,276.64-122.35,450.19-139.78,45.14-4.54,92.14-3.86,142-6.37,196.71-9.9,330.84,13.79,399-95.23,40.3-64.42,18.83-169.48,46-251.42,20.12-60.75,47.58-95.87,104.08-117.83,67.64-26.3,172-13.29,272.05-29.87,4.43-.73,8.88-1.48,13.34-2.2,231.64-37.48,383.89-81.43,462-125.31"/><path class="cls-12" d="M238,1650.54c48.65-99.59,74.51-484.77,339-585.48,180.86-68.87,344,60.7,468.89,90.51a326.52,326.52,0,0,0,98.15,8c230.07-15.1,267.91-151.52,447.73-174.8,45.88-5.94,93.87-5.36,144.5-6.61,201.83-5,347.55,41.09,415.44-63.93,40.47-62.59,11.27-170.92,30.74-259.19,14.14-64.1,37.14-105.42,92.86-131.87,66.93-31.78,174.78-20.22,276-35.56,4.53-.69,9.06-1.38,13.61-2,238.79-34.67,399-61.1,481.32-92.76"/><path class="cls-13" d="M225.77,1631.7c54-106.81,91.26-475.39,349.55-566.42,185-65.18,346.35,75.94,474.5,108.64a300.07,300.07,0,0,0,99.76,8.23c229.21-18.89,259.2-180.6,445.26-209.83,46.62-7.32,95.62-8.18,147-6.84,206.88,5.41,364.29,68.4,431.86-32.63,40.64-60.76,3.9-172.38,15.51-267,8.29-67.48,26.69-115,81.65-145.92,66.2-37.26,177.59-27.12,279.92-41.25q6.93-1,13.88-1.87c246-31.83,414.16-40.78,500.63-60.22"/><path class="cls-14" d="M213.53,1612.86c59.24-114,108.12-465.71,360.08-547.35,189.16-61.3,348.68,91.14,480.11,126.76a278.39,278.39,0,0,0,101.36,8.4c228.37-22.57,250.53-209.58,442.81-244.84,47.36-8.69,97.32-8.3,149.46-7.08,212.05,5,381,95.72,448.27-1.33,40.83-58.92-3.32-173.92.28-274.72,2.53-70.92,16.23-124.55,70.44-160,65.47-42.76,180.41-34,283.85-47,4.72-.58,9.43-1.16,14.15-1.7,253.1-28.94,429.3-20.45,519.94-27.67"/><path class="cls-15" d="M201.29,1594c64.53-121.25,125.08-455.73,370.62-528.3,193.41-57.16,351,106.33,485.7,144.88a260.86,260.86,0,0,0,103,8.59c227.53-26.18,241.88-238.49,440.34-279.86,48.12-10,99-9.76,152-7.32,217.15,10,397.79,123,464.69,30,41-57.07-10.43-175.54-15-282.49-3.15-74.41,5.76-134.13,59.23-174,64.72-48.26,183.22-40.9,287.78-52.64,4.81-.54,9.61-1.07,14.42-1.55,260.26-26,444.43-.12,539.25,4.89"/><path class="cls-16" d="M189,1575.19c69.84-128.46,142.1-445.44,381.16-509.23,197.73-52.77,353.34,121.49,491.31,163a246.4,246.4,0,0,0,104.58,8.77C1392.82,1208,1399.37,970.4,1604,922.84c48.89-11.36,100.77-11.2,154.44-7.54,222.24,15.12,414.56,150.38,481.1,61.25,41.22-55.21-17.45-177.24-30.19-290.24-8.79-78-4.72-143.71,48-188.06,63.95-53.77,186-47.78,291.72-58.34,4.89-.49,9.79-1,14.68-1.38,267.42-23,459.57,20.21,558.55,37.44"/><path class="cls-17" d="M176.8,1556.35c75.13-135.68,159.15-434.86,391.69-490.17,202.1-48.06,355.7,136.63,496.92,181.13,34.72,10.94,69.79,14.29,106.18,8.94,226-33.17,224.72-296.09,435.42-349.9,49.66-12.68,102.49-12.64,156.92-7.78,227.32,20.27,431.36,177.73,497.52,92.55,41.43-53.35-24.43-179-45.42-298-14.4-81.62-15.21-153.29,36.81-202.1,63.18-59.29,188.84-54.64,295.65-64,5-.43,10-.85,15-1.21,274.57-20,474.7,40.53,577.86,70"/><path class="cls-18" d="M164.55,1537.52c80.43-142.91,176.2-424,402.23-471.11,206.5-43,358.06,151.74,502.52,199.24,35.13,11.55,70.71,15.16,107.8,9.13,225.18-36.57,216.19-324.79,433-384.92,50.44-14,104.19-14.07,159.4-8,232.38,25.45,448.17,205.1,513.93,123.85,41.66-51.48-31.38-180.93-60.65-305.77-20-85.32-25.71-162.88,25.6-216.16C2310.74,419,2440,422.27,2547.92,414q7.62-.59,15.22-1.05c281.72-17,489.84,60.86,597.17,102.54"/><path class="cls-19" d="M152.31,1518.68c85.72-150.12,193.21-412.87,412.77-452C776,1029,925.51,1233.48,1073.2,1284c35.53,12.15,71.62,16,109.4,9.31,224.45-39.91,207.7-353.45,430.5-419.95,51.24-15.29,105.9-15.48,161.89-8.25,237.42,30.67,465,232.49,530.34,155.15,41.9-49.6-38.32-182.89-75.87-313.54-25.61-89.07-36.22-172.45,14.38-230.2,61.61-70.3,194.46-68.34,303.51-75.42q7.76-.5,15.49-.88c288.86-14,505,81.18,616.48,135.09"/><path class="cls-20" d="M140.07,1499.84c91-157.34,210.16-401.48,423.3-433,215.29-31.82,362.82,181.92,513.73,235.49,35.94,12.75,72.54,16.91,111,9.49,223.75-43.2,199.26-382,428-455,52-16.59,107.61-16.9,164.38-8.49,242.44,35.93,481.84,259.9,546.75,186.45,42.15-47.7-45.27-184.9-91.1-321.31-31.21-92.85-46.73-182,3.17-244.24,60.81-75.81,197.27-75.18,307.44-81.12q7.91-.42,15.76-.71c296-10.86,520.11,101.51,635.79,167.64"/><path class="cls-21" d="M127.82,1481c96.32-164.56,227-389.85,433.84-413.92,219.65-25.57,365.22,197,519.33,253.6,36.35,13.36,73.48,17.82,112.62,9.67,223.07-46.42,190.84-410.6,425.57-490,52.85-17.87,109.31-18.31,166.87-8.72,247.44,41.21,498.69,287.32,563.16,217.74,42.42-45.79-52.22-187-106.33-329.07-36.82-96.69-57.33-191.68-8-258.29,59.89-81.4,200.09-81.8,311.37-86.81,5.36-.22,10.71-.42,16-.56,303.13-7.73,535.25,121.85,655.1,200.19"/><path class="cls-22" d="M115.58,1462.17c101.61-171.78,243.7-378,444.37-394.86,223.93-18.83,367.72,211.79,524.94,271.73,36.78,13.9,74.41,18.73,114.22,9.85,222.43-49.61,182.48-439.12,423.12-525,53.66-19.15,111-19.61,169.34-9,252.36,46.94,515.58,314.78,579.58,249,42.69-43.86-59.19-189.07-121.56-336.84-42.44-100.54-67.81-201.21-19.25-272.33,59.14-86.86,202.89-88.72,315.31-92.51q8.17-.26,16.29-.39c310.26-4.23,550.38,142.17,674.4,232.74"/><path class="cls-23" d="M103.33,1443.33c106.91-179,260.22-365.9,454.92-375.79,280.94-14.28,431.18,351,646.37,299.88,221.82-52.75,174.13-467.61,420.65-560C1917,698,2315,1154.69,2393.09,1078.54c72.24-70.43-285.32-444.27-167.25-631,58.38-92.31,205.69-95.63,319.24-98.2,325.3-7.33,579.86,160.49,710.27,265.07"/></g></svg>