<svg width="900" height="600" xmlns="http://www.w3.org/2000/svg" version="1.1">
 <defs>
  <filter height="200%" width="200%" y="-50%" x="-50%" id="svg_5_blur">
   <feGaussianBlur stdDeviation="3.4" in="SourceGraphic"/>
  </filter>
  <filter height="200%" width="200%" y="-50%" x="-50%" id="svg_3_blur">
   <feGaussianBlur stdDeviation="6.3" in="SourceGraphic"/>
  </filter>
  <filter height="200%" width="200%" y="-50%" x="-50%" id="svg_4_blur">
   <feGaussianBlur stdDeviation="4.9" in="SourceGraphic"/>
  </filter>
  <filter height="200%" width="200%" y="-50%" x="-50%" id="svg_2_blur">
   <feGaussianBlur stdDeviation="8.1" in="SourceGraphic"/>
  </filter>
 </defs>
 <g>
  <title>Layer 1</title>
  <rect id="svg_1" fill="#419ae3" height="600" width="900" y="0" x="0"/>
  <path filter="url(#svg_2_blur)" id="svg_2" fill="#0378d8" d="m0,221l16.7,-7c16.6,-7 50,-21 83.3,-34.7c33.3,-13.6 66.7,-27 100,-24c33.3,3 66.7,22.4 100,39.2c33.3,16.8 66.7,31.2 100,22.5c33.3,-8.7 66.7,-40.3 100,-48.2c33.3,-7.8 66.7,8.2 100,11.4c33.3,3.1 66.7,-6.5 100,-15.2c33.3,-8.7 66.7,-16.3 100,-9c33.3,7.3 66.7,29.7 83.3,40.8l16.7,11.2l0,393l-16.7,0c-16.6,0 -50,0 -83.3,0c-33.3,0 -66.7,0 -100,0c-33.3,0 -66.7,0 -100,0c-33.3,0 -66.7,0 -100,0c-33.3,0 -66.7,0 -100,0c-33.3,0 -66.7,0 -100,0c-33.3,0 -66.7,0 -100,0c-33.3,0 -66.7,0 -100,0c-33.3,0 -66.7,0 -83.3,0l-16.7,0l0,-380z"/>
  <path filter="url(#svg_3_blur)" id="svg_3" fill="#006fa3" d="m-1,244l16.7,4.3c16.6,4.4 50,13 83.3,20.2c33.3,7.2 66.7,12.8 100,12.5c33.3,-0.3 66.7,-6.7 100,-6.3c33.3,0.3 66.7,7.3 100,4.3c33.3,-3 66.7,-16 100,-9.8c33.3,6.1 66.7,31.5 100,37c33.3,5.5 66.7,-8.9 100,-13.7c33.3,-4.8 66.7,-0.2 100,-6.8c33.3,-6.7 66.7,-24.7 83.3,-33.7l16.7,-9l0,358l-16.7,0c-16.6,0 -50,0 -83.3,0c-33.3,0 -66.7,0 -100,0c-33.3,0 -66.7,0 -100,0c-33.3,0 -66.7,0 -100,0c-33.3,0 -66.7,0 -100,0c-33.3,0 -66.7,0 -100,0c-33.3,0 -66.7,0 -100,0c-33.3,0 -66.7,0 -100,0c-33.3,0 -66.7,0 -83.3,0l-16.7,0l0,-357z"/>
  <path filter="url(#svg_4_blur)" id="svg_4" fill="#005d6d" d="m-1,354l16.7,0.2c16.6,0.1 50,0.5 83.3,2c33.3,1.5 66.7,4.1 100,9c33.3,4.8 66.7,11.8 100,14.5c33.3,2.6 66.7,1 100,5.1c33.3,4.2 66.7,14.2 100,17c33.3,2.9 66.7,-1.5 100,0.2c33.3,1.7 66.7,9.3 100,10.8c33.3,1.5 66.7,-3.1 100,-12.8c33.3,-9.7 66.7,-24.3 83.3,-31.7l16.7,-7.3l0,239l-16.7,0c-16.6,0 -50,0 -83.3,0c-33.3,0 -66.7,0 -100,0c-33.3,0 -66.7,0 -100,0c-33.3,0 -66.7,0 -100,0c-33.3,0 -66.7,0 -100,0c-33.3,0 -66.7,0 -100,0c-33.3,0 -66.7,0 -100,0c-33.3,0 -66.7,0 -100,0c-33.3,0 -66.7,0 -83.3,0l-16.7,0l0,-246z"/>
  <path filter="url(#svg_5_blur)" stroke-width="0" id="svg_5" fill="#0b4639" d="m0,463l16.7,5.8c16.6,5.9 50,17.5 83.3,22.4c33.3,4.8 66.7,2.8 100,3.5c33.3,0.6 66.7,4 100,-2.2c33.3,-6.2 66.7,-21.8 100,-25.3c33.3,-3.5 66.7,5.1 100,5.6c33.3,0.5 66.7,-7.1 100,-8.1c33.3,-1 66.7,4.6 100,8.8c33.3,4.2 66.7,6.8 100,12.5c33.3,5.7 66.7,14.3 83.3,18.7l16.7,4.3l0,92l-16.7,0c-16.6,0 -50,0 -83.3,0c-33.3,0 -66.7,0 -100,0c-33.3,0 -66.7,0 -100,0c-33.3,0 -66.7,0 -100,0c-33.3,0 -66.7,0 -100,0c-33.3,0 -66.7,0 -100,0c-33.3,0 -66.7,0 -100,0c-33.3,0 -66.7,0 -100,0c-33.3,0 -66.7,0 -83.3,0l-16.7,0l0,-138z"/>
 </g>
</svg>